<svg width="101" height="65" viewBox="0 0 101 65" fill="none" xmlns="http://www.w3.org/2000/svg"><title>ClimatePartnerLogo</title><path d="M5.00562 54.9197C5.00562 52.2218 7.04243 50.3815 9.66885 50.3815C11.2054 50.3279 12.6169 51.1676 13.3315 52.5255L11.7414 53.3117C11.3305 52.5434 10.5443 52.0431 9.66885 52.0431C8.0787 52.0431 6.91736 53.2581 6.91736 54.9197C6.91736 56.5813 8.0787 57.7962 9.66885 57.7962C10.5443 57.7962 11.3483 57.296 11.7414 56.5277L13.3494 57.296C12.6347 58.6538 11.2054 59.4936 9.66885 59.4578C7.04243 59.4578 5.00562 57.6176 5.00562 54.9197Z" fill="#424242"></path><path d="M15.9758 50.5244H14.3142V59.297H15.9758V50.5244Z" fill="#424242"></path><path d="M17.3873 51.257C17.3873 50.7031 17.834 50.2564 18.3878 50.2564C18.9417 50.2564 19.3884 50.7031 19.3884 51.257C19.3884 51.8108 18.9417 52.2575 18.3878 52.2575C17.834 52.2575 17.3873 51.8108 17.3873 51.257ZM17.566 52.9365H19.2276V59.2792H17.566V52.9365Z" fill="#424242"></path><path d="M28.6791 59.297V55.2949C28.6791 54.7053 28.4111 54.2765 27.7322 54.2765C27.1962 54.2943 26.7138 54.5802 26.41 55.009V59.297H24.7306V55.2949C24.7306 54.7053 24.4626 54.2765 23.7836 54.2765C23.2476 54.3122 22.7652 54.5802 22.4615 55.0269V59.297H20.7999V52.9365H22.4615V53.7583C22.9796 53.1509 23.73 52.7935 24.534 52.7757C25.4631 52.7757 26.0527 53.2045 26.3028 53.937C26.8031 53.2223 27.6071 52.7935 28.4826 52.7757C29.6618 52.7757 30.3586 53.401 30.3586 54.6874V59.2792H28.6791V59.297Z" fill="#424242"></path><path d="M36.3797 59.297V58.4752C35.9152 59.0826 35.1826 59.44 34.4143 59.4578C32.8063 59.4578 31.5914 58.2429 31.5914 56.1346C31.5914 54.0263 32.7706 52.7935 34.4143 52.7935C35.1826 52.7935 35.8973 53.1509 36.3618 53.7583V52.9365H38.0592V59.297H36.3797ZM36.3797 57.2424V54.9911C36.0402 54.5445 35.5042 54.2765 34.9325 54.2765C33.9855 54.2765 33.3245 55.009 33.3245 56.1167C33.3245 57.2245 33.9855 57.957 34.9325 57.957C35.5042 57.957 36.0402 57.689 36.3797 57.2424Z" fill="#424242"></path><path d="M40.096 57.7069V54.4015H39.0419V52.9365H40.096V51.2034H41.7755V52.9365H43.0619V54.4015H41.7755V57.2781C41.7755 57.6712 41.9899 57.9749 42.3651 57.9749C42.5795 57.9749 42.776 57.9213 42.9368 57.7962L43.2941 59.0648C42.9011 59.3685 42.4008 59.5114 41.9005 59.4757C40.7213 59.4578 40.1139 58.8504 40.096 57.7069Z" fill="#424242"></path><path d="M43.7408 56.1167C43.6872 54.3301 45.0987 52.8471 46.8854 52.7935C46.939 52.7935 46.9926 52.7935 47.0462 52.7935C48.94 52.7935 50.2265 54.205 50.2265 56.2954V56.6706H45.5096C45.6168 57.4746 46.26 58.1536 47.332 58.1536C47.9574 58.1536 48.547 57.9213 49.0294 57.5282L49.7619 58.6002C49.0294 59.2077 48.1003 59.5114 47.1534 59.4936C45.2059 59.4578 43.7408 58.1714 43.7408 56.1167ZM47.0283 54.0978C46.2064 54.0799 45.5275 54.6874 45.456 55.5093H48.5827C48.547 54.7053 47.8502 54.0621 47.0283 54.0978Z" fill="#424242"></path><path d="M51.495 59.297V50.5244H55.6044C57.5161 50.5244 58.5524 51.8109 58.5524 53.3474C58.5524 54.8839 57.4982 56.1703 55.6044 56.1703H53.371V59.2792H51.495V59.297ZM56.6406 53.3474C56.6406 52.6149 56.0868 52.1682 55.3542 52.1682H53.371V54.5445H55.3542C56.0868 54.5266 56.6406 54.0799 56.6406 53.3474Z" fill="#424242"></path><path d="M63.8767 59.297V58.4752C63.4122 59.0826 62.6796 59.44 61.9113 59.4578C60.3033 59.4578 59.1063 58.2429 59.1063 56.1346C59.1063 54.0263 60.2855 52.7935 61.9113 52.7935C62.6796 52.7935 63.3943 53.1509 63.8588 53.7583V52.9365H65.5562V59.297H63.8767ZM63.8767 57.2424V54.9911C63.5372 54.5445 63.0012 54.2765 62.4295 54.2765C61.4825 54.2765 60.8215 55.009 60.8215 56.1167C60.8215 57.2245 61.4647 57.957 62.4295 57.957C63.0012 57.957 63.5372 57.689 63.8767 57.2424Z" fill="#424242"></path><path d="M67.1463 52.9365H68.8079V53.8119C69.3082 53.1866 70.0407 52.8114 70.8269 52.7935V54.4194C70.6661 54.3837 70.5231 54.3837 70.3623 54.3837C69.7549 54.4015 69.201 54.6517 68.8079 55.1162V59.3149H67.1463V52.9365Z" fill="#424242"></path><path d="M72.4706 57.7069V54.4015H71.4165V52.9365H72.4706V51.2034H74.1501V52.9365H75.4365V54.4015H74.1501V57.2781C74.1501 57.6712 74.3645 57.9749 74.7397 57.9749C74.9541 57.9749 75.1506 57.9213 75.3114 57.7962L75.6688 59.0648C75.2757 59.3685 74.7754 59.5114 74.2752 59.4757C73.1138 59.4578 72.4885 58.8504 72.4706 57.7069Z" fill="#424242"></path><path d="M80.9395 59.297V55.4557C80.9395 54.5623 80.4749 54.2765 79.7603 54.2765C79.1885 54.2765 78.6525 54.5623 78.3131 55.0269V59.3149H76.6514V52.9543H78.3131V53.7762C78.8669 53.133 79.6888 52.7757 80.5285 52.7935C81.9221 52.7935 82.6011 53.5797 82.6011 54.8125V59.297H80.9395Z" fill="#424242"></path><path d="M83.7982 56.1167C83.7446 54.3301 85.156 52.8471 86.9427 52.7935C86.9963 52.7935 87.0499 52.7935 87.1035 52.7935C88.9974 52.7935 90.2838 54.205 90.2838 56.2954V56.6706H85.5491C85.6563 57.4746 86.2995 58.1536 87.3715 58.1536C87.9969 58.1357 88.5865 57.9213 89.0689 57.5282L89.8014 58.6002C89.0689 59.2077 88.1398 59.5114 87.1929 59.4936C85.2454 59.4578 83.7982 58.1714 83.7982 56.1167ZM87.0856 54.0978C86.2638 54.0799 85.5848 54.6874 85.5134 55.5093H88.6401C88.6043 54.7053 87.9075 54.0621 87.0856 54.0978Z" fill="#424242"></path><path d="M91.4273 52.9365H93.0889V53.8119C93.5892 53.1866 94.3217 52.8114 95.1078 52.7935V54.4194C94.9649 54.3837 94.8041 54.3837 94.6433 54.3837C94.0358 54.4015 93.482 54.6517 93.071 55.1162V59.3149H91.4273V52.9365Z" fill="#424242"></path><path d="M57.4366 21.8255C57.4366 25.9249 54.1386 29.2556 50.0796 29.2983C46.0206 29.341 42.7226 25.9676 42.6803 21.8682C42.6803 17.7688 45.9783 14.4381 50.0373 14.3954C54.0964 14.3954 57.3943 17.7262 57.4366 21.8255Z" fill="#AEAEAE"></path><path d="M43.2299 31.9458C37.691 28.1454 36.2535 20.5445 40.0165 14.9932C42.8071 10.8085 47.8809 8.80149 52.7433 9.95443L54.3923 6.11128C45.7668 3.67728 36.8454 8.80149 34.4353 17.5126C32.4904 24.5584 35.4078 32.0312 41.581 35.8744L43.2299 31.9458Z" fill="#424242"></path><path d="M50.3333 38.223C59.297 38.0522 66.4003 30.6221 66.2734 21.5693C66.1889 15.9754 63.2292 10.8085 58.4936 7.86205L56.8446 11.7052C62.3835 15.5057 63.8211 23.1066 60.058 28.6578C57.2674 32.8426 52.2359 34.8068 47.3735 33.6966L43.3568 43.0483H48.2615L50.3333 38.223Z" fill="#424242"></path></svg>
